{
  "asset": {
    "version": "2.0",
    "generator": "Microsoft GLTF Exporter 2.4.0.8"
  },
  "accessors": [
    {
      "bufferView": 0,
      "byteOffset": 0,
      "componentType": 5123,
      "count": 2640,
      "type": "SCALAR"
    },
    {
      "bufferView": 1,
      "byteOffset": 0,
      "componentType": 5126,
      "count": 2551,
      "type": "VEC3",
      "max": [
        10.8074312210083,
        2.0082759857177734,
        12.392829895019531
      ],
      "min": [
        -12.240005493164062,
        0.00007673085201531649,
        -13.842947006225586
      ]
    },
    {
      "bufferView": 2,
      "byteOffset": 0,
      "componentType": 5126,
      "count": 2551,
      "type": "VEC3"
    },
    {
      "bufferView": 3,
      "byteOffset": 0,
      "componentType": 5126,
      "count": 2551,
      "type": "VEC2"
    }
  ],
  "bufferViews": [
    {
      "buffer": 0,
      "byteOffset": 0,
      "byteLength": 5280,
      "target": 34963
    },
    {
      "buffer": 0,
      "byteOffset": 5280,
      "byteLength": 30612,
      "target": 34962
    },
    {
      "buffer": 0,
      "byteOffset": 35892,
      "byteLength": 30612,
      "target": 34962
    },
    {
      "buffer": 0,
      "byteOffset": 66504,
      "byteLength": 20408,
      "target": 34962
    }
  ],
  "buffers": [
    {
      "uri": "Island_data.bin",
      "byteLength": 86912
    }
  ],
  "images": [
    {
      "uri": "Island_img0.png"
    },
    {
      "uri": "Island_img1.png"
    },
    {
      "uri": "Island_img2.png"
    },
    {
      "uri": "Island_img3.png"
    }
  ],
  "materials": [
    {
      "pbrMetallicRoughness": {
        "baseColorTexture": {
          "index": 2
        },
        "metallicRoughnessTexture": {
          "index": 3
        }
      },
      "alphaMode": "MASK",
      "name": "98",
      "doubleSided": true,
      "extensions": {
        "KHR_materials_pbrSpecularGlossiness": {
          "diffuseTexture": {
            "index": 0
          },
          "specularGlossinessTexture": {
            "index": 1
          }
        }
      },
      "extras": {
        "MSFT_sRGBFactors": false
      }
    }
  ],
  "meshes": [
    {
      "name": "mesh_id50",
      "primitives": [
        {
          "attributes": {
            "POSITION": 1,
            "NORMAL": 2,
            "TEXCOORD_0": 3
          },
          "indices": 0,
          "material": 0
        }
      ]
    }
  ],
  "nodes": [
    {
      "children": [
        1
      ],
      "name": "root"
    },
    {
      "matrix": [
        3.972360662629626e-9,
        0,
        -0.02221504971385002,
        0,
        0,
        0.02221505343914032,
        0,
        0,
        0.02221504971385002,
        0,
        3.972360662629626e-9,
        0,
        0.009655321016907692,
        -0.032391779124736786,
        -0.015912361443042755,
        1
      ],
      "mesh": 0,
      "name": "node_id49"
    }
  ],
  "samplers": [
    {
      "minFilter": 9985
    }
  ],
  "scenes": [
    {
      "nodes": [
        0
      ]
    }
  ],
  "scene": 0,
  "textures": [
    {
      "name": "texture16",
      "sampler": 0,
      "source": 0
    },
    {
      "name": "texture17",
      "sampler": 0,
      "source": 1
    },
    {
      "name": "98_bc",
      "sampler": 0,
      "source": 2
    },
    {
      "name": "98_mr",
      "sampler": 0,
      "source": 3
    }
  ],
  "extensionsUsed": [
    "KHR_materials_pbrSpecularGlossiness"
  ]
}