{"accessors":[{"name":"Stand-Mesh_positions","componentType":5126,"count":607,"min":[-1,0,-1],"max":[1,2,1],"type":"VEC3","bufferView":0,"byteOffset":0},{"name":"Stand-Mesh_normals","componentType":5126,"count":607,"min":[-0.9925000071525574,-1,-0.9671000242233276],"max":[0.9925000071525574,1,1],"type":"VEC3","bufferView":0,"byteOffset":7284},{"name":"Stand-Mesh_texcoords","componentType":5126,"count":607,"min":[0,0],"max":[1,1],"type":"VEC2","bufferView":1,"byteOffset":0},{"name":"Stand-Mesh_0_indices","componentType":5123,"count":1908,"min":[0],"max":[606],"type":"SCALAR","bufferView":2,"byteOffset":0}],"asset":{"generator":"obj2gltf","version":"2.0"},"buffers":[{"name":"Stand","byteLength":23240,"uri":"data:application/octet-stream;base64,"}],"bufferViews":[{"name":"bufferView_0","buffer":0,"byteLength":14568,"byteOffset":0,"byteStride":12,"target":34962},{"name":"bufferView_1","buffer":0,"byteLength":4856,"byteOffset":14568,"byteStride":8,"target":34962},{"name":"bufferView_2","buffer":0,"byteLength":3816,"byteOffset":19424,"target":34963}],"materials":[{"name":"StandMat","pbrMetallicRoughness":{"baseColorFactor":[0.64,0.64,0.64,1],"metallicFactor":0,"roughnessFactor":0.903921569},"emissiveFactor":[0,0,0],"alphaMode":"OPAQUE","doubleSided":false}],"meshes":[{"name":"Stand-Mesh","primitives":[{"attributes":{"POSITION":0,"NORMAL":1,"TEXCOORD_0":2},"indices":3,"material":0,"mode":4}]}],"nodes":[{"name":"Stand","mesh":0}],"scene":0,"scenes":[{"nodes":[0]}]}
